<svg xmlns="http://www.w3.org/2000/svg" xmlns:xlink="http://www.w3.org/1999/xlink" viewBox="0 0 200.79 200.79"><defs><style>.cls-1{fill:url(#radial-gradient);}.cls-2{fill:#fff;stroke:#fff;stroke-miterlimit:10;stroke-width:0.75px;}</style><radialGradient id="radial-gradient" cx="27.15" cy="178.4" fx="87.32035806159975" fy="195.88111699068043" r="248.99" gradientUnits="userSpaceOnUse"><stop offset="0.03" stop-color="#00b5eb"/><stop offset="0.35" stop-color="#4c83c4"/><stop offset="0.68" stop-color="#4f3c97"/><stop offset="0.76" stop-color="#523c96"/><stop offset="0.81" stop-color="#5b3e94"/><stop offset="0.86" stop-color="#6b4090"/><stop offset="0.9" stop-color="#81438a"/><stop offset="0.94" stop-color="#9e4782"/><stop offset="0.98" stop-color="#c04c79"/><stop offset="1" stop-color="#d54f74"/></radialGradient></defs><title>wave-coin</title><g id="Layer_2" data-name="Layer 2"><g id="Layer_1-2" data-name="Layer 1"><rect class="cls-1" width="200.79" height="200.79" rx="100.4" ry="100.4"/><circle class="cls-2" cx="23.12" cy="74.06" r="4.78" transform="translate(-52 93.43) rotate(-87.12)"/><path class="cls-2" d="M175,73.12a3.59,3.59,0,0,0-3.5,2.54c-3.17,10.46-16.53,45.83-27,45.13-9.41-.14-13.55-8.77-18.9-20.77-6-13.54-12.26-27.54-26.28-27.76-7.7-.12-13.18,4-17.62,10C78,87,74.94,93,71.94,98.88,66,110.59,60.37,121.65,51,121.31c-8.51.13-17-19.81-21.32-35.16a3.59,3.59,0,0,0-3.33-2.61l-.47,0A3.6,3.6,0,0,0,22.22,88c4.35,17.18,13.66,39.79,28.49,40.53,14,.5,21-13.16,27.67-26.38,2.16-4.26,4.28-8.42,6.55-12l.06.07c.74-1.22,1.5-2.37,2.29-3.43,3.4-4.4,7.23-7.25,12.07-7.08,6,.21,10.11,4.93,13.63,11.46l.23-.25c2,3.62,3.88,7.78,5.77,12,6,13.54,11.36,24.84,25.38,25,17.87,0,30.65-36.93,34.19-50.38a3.6,3.6,0,0,0-3.43-4.5Z"/></g></g></svg>